# Blender 4.5.1 LTS
# www.blender.org
mtllib newpinch.mtl
o obj_0.004
v -0.054755 0.553913 -0.207984
v -0.054755 0.170298 -0.007984
v 0.045245 0.170714 -0.007984
v 0.045245 0.554332 -0.207984
v -0.054755 -0.229654 -0.007984
v 0.045245 -0.229654 -0.007984
v -0.054755 -0.614798 -0.207984
v 0.045245 -0.614798 -0.207984
vn -0.0019 0.4623 0.8867
vn -0.0000 -0.0000 1.0000
vn -0.0000 -0.4609 0.8875
vn -1.0000 -0.0000 -0.0000
vn 1.0000 -0.0000 -0.0000
vn -0.0000 -0.0000 -1.0000
s 0
usemtl color_15277357.004
f 1//1 2//1 3//1
f 1//1 3//1 4//1
f 3//2 2//2 6//2
f 5//2 6//2 2//2
f 5//3 7//3 8//3
f 5//3 8//3 6//3
f 2//4 1//4 5//4
f 7//4 5//4 1//4
f 4//5 3//5 6//5
f 4//5 6//5 8//5
f 1//6 4//6 8//6
f 1//6 8//6 7//6
