# Blender 4.5.1 LTS
# www.blender.org
mtllib volumetr.mtl
o obj_0.002
v -0.669550 0.910000 -0.215777
v 0.030450 0.910000 0.484223
v 0.730451 0.910000 -0.215777
v 0.030450 -0.490000 0.484223
v -0.669550 -0.490000 -0.215777
v 0.730451 -0.490000 -0.215777
vn -0.0000 1.0000 -0.0000
vn -0.0000 -1.0000 -0.0000
vn -0.0000 -0.0000 -1.0000
vn -0.7071 -0.0000 0.7071
vn 0.7071 -0.0000 0.7071
s 1
usemtl color_4634441
f 1//1 2//1 3//1
f 4//2 5//2 6//2
f 3//3 6//3 5//3
f 3//3 5//3 1//3
f 2//4 1//4 5//4
f 2//4 5//4 4//4
f 2//5 4//5 6//5
f 2//5 6//5 3//5
