# Blender 4.5.1 LTS
# www.blender.org
mtllib volumetr2.mtl
o obj_0.007
v -0.775413 -0.734889 1.390787
v -0.775413 -0.734889 -0.209213
v 0.824587 -0.734889 -0.209213
v 0.824587 -0.734889 1.390787
v 0.824587 0.865111 -0.209213
v -0.775413 0.865111 -0.209213
vn -0.0000 -1.0000 -0.0000
vn -0.0000 0.7071 0.7071
vn -1.0000 -0.0000 -0.0000
vn 1.0000 -0.0000 -0.0000
vn -0.0000 -0.0000 -1.0000
s 1
usemtl color_3888547
f 1//1 2//1 3//1
f 1//1 3//1 4//1
f 1//2 4//2 5//2
f 1//2 5//2 6//2
f 2//3 1//3 6//3
f 4//4 3//4 5//4
f 3//5 2//5 6//5
f 3//5 6//5 5//5
